<svg width="375" height="90" viewBox="0 0 375 90" fill="none" xmlns="http://www.w3.org/2000/svg">
<rect width="375" height="90" fill="white"/>
<path d="M0 0H375V90H0V0Z" fill="url(#paint0_radial)"/>
<g opacity="0.5">
<rect x="198.028" y="15.3962" width="79.5" height="62.7074" rx="3.75" fill="white" stroke="#E0E0E0" stroke-width="0.5"/>
<path d="M277.528 74.3538C277.528 76.4248 275.849 78.1038 273.778 78.1038L201.778 78.1038C199.707 78.1038 198.028 76.4248 198.028 74.3538L198.028 68.2392L277.528 68.2392L277.528 74.3538Z" fill="#F2F2F2" stroke="#E0E0E0" stroke-width="0.5"/>
<path d="M198.028 19.1462C198.028 17.0752 199.707 15.3962 201.778 15.3962H273.778C275.849 15.3962 277.528 17.0752 277.528 19.1462V28.2406H198.028V19.1462Z" fill="#F2F2F2" stroke="#E0E0E0" stroke-width="0.5"/>
<circle cx="207.731" cy="21.8184" r="4" fill="#E4E4E4"/>
<rect x="215.731" y="19.4534" width="45.8293" height="2" rx="1" fill="#D7D7D7"/>
<path d="M215.731 23.6287C215.731 23.0764 216.179 22.6287 216.731 22.6287H235.598C236.15 22.6287 236.598 23.0764 236.598 23.6287C236.598 24.1809 236.15 24.6287 235.598 24.6287H216.731C216.179 24.6287 215.731 24.1809 215.731 23.6287Z" fill="#E4E4E4"/>
<path d="M235.763 52.4631L241.763 47.9631L235.763 43.4631V52.4631ZM230.7 40.9319C232.669 38.9631 235.028 37.9788 237.778 37.9788C240.528 37.9788 242.872 38.9631 244.81 40.9319C246.778 42.8694 247.763 45.2131 247.763 47.9631C247.763 50.7131 246.778 53.0725 244.81 55.0413C242.872 56.9788 240.528 57.9475 237.778 57.9475C235.028 57.9475 232.669 56.9788 230.7 55.0413C228.763 53.0725 227.794 50.7131 227.794 47.9631C227.794 45.2131 228.763 42.8694 230.7 40.9319Z" fill="#E0E0E0"/>
</g>
<g opacity="0.3">
<rect x="286.028" y="15.3962" width="79.5" height="62.7074" rx="3.75" fill="white" stroke="#E0E0E0" stroke-width="0.5"/>
<path d="M346.095 58.9154L336.244 45.1642C336.076 44.9239 335.812 44.7878 335.532 44.7878C335.251 44.7878 334.987 44.9239 334.819 45.1642L329.885 52.0438L325.737 46.2534C325.545 45.9811 325.168 45.925 324.896 46.1172C324.624 46.3094 324.568 46.6859 324.76 46.9582L333.545 59.2197H328.26H306.58L320.067 40.4149L322.565 43.9068C322.758 44.1791 323.134 44.2351 323.406 44.0429C323.679 43.8507 323.735 43.4743 323.542 43.202L320.867 39.4699C320.675 39.1976 320.379 39.0454 320.067 39.0454C319.746 39.0454 319.458 39.1976 319.266 39.4699L305.482 58.6912C305.242 59.0275 305.21 59.492 305.402 59.8685C305.579 60.2128 305.923 60.4291 306.291 60.4291H345.391C345.719 60.4291 346.023 60.2369 346.175 59.9405C346.336 59.6042 346.312 59.2037 346.095 58.9154ZM334.843 59.2197C334.819 59.0275 334.755 58.8433 334.643 58.6912L330.622 53.0769L335.532 46.2294L344.846 59.2197H334.843Z" fill="#F2F2F2"/>
<path d="M333.737 43.8874C334.066 43.8874 334.338 43.6151 334.338 43.2867C334.338 42.9583 334.066 42.686 333.737 42.686C332.712 42.686 331.879 41.8291 331.879 40.7719C331.879 39.7148 332.712 38.8498 333.737 38.8498H334.042C334.522 38.8498 334.931 38.4894 335.003 38.0089C335.251 36.2469 336.749 34.9174 338.479 34.9174C340.209 34.9174 341.706 36.2469 341.954 38.0089C342.027 38.4894 342.435 38.8498 342.916 38.8498H343.22C344.245 38.8498 345.078 39.7067 345.078 40.7639C345.078 41.8211 344.245 42.678 343.22 42.678H337.486C337.157 42.678 336.885 42.9503 336.885 43.2787C336.885 43.6071 337.157 43.8794 337.486 43.8794H343.22C344.902 43.8794 346.279 42.4778 346.279 40.7639C346.279 39.05 344.894 37.6485 343.212 37.6485H343.108C342.691 35.398 340.737 33.7241 338.479 33.7241C336.22 33.7241 334.258 35.398 333.85 37.6485H333.745C332.064 37.6485 330.686 39.05 330.686 40.7639C330.678 42.4858 332.048 43.8874 333.737 43.8874Z" fill="#F2F2F2"/>
<path d="M365.528 74.3538C365.528 76.4248 363.849 78.1038 361.778 78.1038L289.778 78.1038C287.707 78.1038 286.028 76.4248 286.028 74.3538L286.028 68.2392L365.528 68.2392L365.528 74.3538Z" fill="#F2F2F2" stroke="#E0E0E0" stroke-width="0.5"/>
<path d="M286.028 19.1462C286.028 17.0752 287.707 15.3962 289.778 15.3962H361.778C363.849 15.3962 365.528 17.0752 365.528 19.1462V28.2406H286.028V19.1462Z" fill="#F2F2F2" stroke="#E0E0E0" stroke-width="0.5"/>
<circle cx="295.731" cy="21.8184" r="4" fill="#E4E4E4"/>
<rect x="303.731" y="19.4534" width="45.8293" height="2" rx="1" fill="#D7D7D7"/>
<path d="M303.731 23.6287C303.731 23.0764 304.179 22.6287 304.731 22.6287H323.598C324.15 22.6287 324.598 23.0764 324.598 23.6287C324.598 24.1809 324.15 24.6287 323.598 24.6287H304.731C304.179 24.6287 303.731 24.1809 303.731 23.6287Z" fill="#E4E4E4"/>
</g>
<g opacity="0.5">
<rect x="68.1962" y="15.3962" width="79.5" height="62.7074" rx="3.75" fill="white" stroke="#E0E0E0" stroke-width="0.5"/>
<path d="M147.696 74.3538C147.696 76.4248 146.017 78.1038 143.946 78.1038L71.9463 78.1038C69.8752 78.1038 68.1963 76.4248 68.1963 74.3538L68.1963 68.2392L147.696 68.2392L147.696 74.3538Z" fill="#F2F2F2" stroke="#E0E0E0" stroke-width="0.5"/>
<path d="M68.1962 19.1462C68.1962 17.0752 69.8752 15.3962 71.9462 15.3962H143.946C146.017 15.3962 147.696 17.0752 147.696 19.1462V28.2406H68.1962V19.1462Z" fill="#F2F2F2" stroke="#E0E0E0" stroke-width="0.5"/>
<circle cx="77.8989" cy="21.8184" r="4" fill="#E4E4E4"/>
<rect x="85.8989" y="19.4534" width="45.8293" height="2" rx="1" fill="#D7D7D7"/>
<path d="M85.8989 23.6287C85.8989 23.0764 86.3466 22.6287 86.8989 22.6287H105.765C106.318 22.6287 106.765 23.0764 106.765 23.6287C106.765 24.1809 106.318 24.6287 105.765 24.6287H86.8989C86.3466 24.6287 85.8989 24.1809 85.8989 23.6287Z" fill="#E4E4E4"/>
<path d="M104.43 53.5183C104.43 56.5259 106.868 58.9703 109.882 58.9703C112.889 58.9703 115.334 56.5316 115.334 53.5183C115.334 50.5106 112.895 48.0662 109.882 48.0662C106.868 48.0662 104.43 50.505 104.43 53.5183ZM109.876 49.1533C112.287 49.1533 114.235 51.1077 114.235 53.5127C114.235 55.9176 112.281 57.872 109.876 57.872C107.465 57.872 105.517 55.9176 105.517 53.5127C105.522 51.1077 107.471 49.1589 109.876 49.1533Z" fill="#F2F2F2"/>
<path d="M107.308 64.4167H112.444C112.743 64.4167 112.991 64.6589 112.991 64.963C112.991 65.2616 112.748 65.5094 112.444 65.5094H107.308C107.009 65.5094 106.761 65.2672 106.761 64.963C106.761 64.6589 107.009 64.4167 107.308 64.4167Z" fill="#F2F2F2"/>
<path d="M104.976 62.2371H114.787C115.086 62.2371 115.334 62.4792 115.334 62.7834C115.334 63.0819 115.091 63.3297 114.787 63.3297H104.976C104.677 63.3297 104.43 63.0875 104.43 62.7834C104.43 62.4792 104.672 62.2371 104.976 62.2371Z" fill="#F2F2F2"/>
<path d="M93.5311 62.2371H92.4384V63.3297H93.5311V62.2371Z" fill="#F2F2F2"/>
<path d="M90.2587 63.3241H89.1661V64.4167H90.2587V63.3241Z" fill="#F2F2F2"/>
<path d="M92.4947 59.1674C95.339 54.211 97.1245 48.7195 97.7384 43.0365L102.807 48.0774C102.909 48.1788 103.044 48.2351 103.19 48.2351C103.219 48.2351 103.252 48.2351 103.281 48.2295C103.455 48.2013 103.602 48.0943 103.68 47.9366C104.706 45.8865 104.306 43.4083 102.684 41.7862L102.239 41.3412H106.074C106.373 41.3412 106.62 41.099 106.62 40.7949C106.62 40.7386 106.609 40.6766 106.592 40.6203C105.866 38.4462 103.833 36.9762 101.54 36.9762H100.831L103.551 34.2389C103.765 34.0249 103.765 33.6813 103.551 33.4673C103.511 33.4279 103.461 33.3941 103.41 33.3659C101.343 32.3408 98.8648 32.7407 97.2427 34.3628L96.7246 34.881C96.5556 35.0499 96.3979 35.2358 96.2515 35.4273C96.1107 35.2358 95.9529 35.0556 95.784 34.881L95.2658 34.3628C93.6437 32.7407 91.1655 32.3408 89.1154 33.3659C88.845 33.5011 88.738 33.8277 88.8732 34.0981C88.9013 34.1488 88.9351 34.1995 88.9745 34.2389L91.7006 36.9762H90.9796C88.6873 36.9762 86.6484 38.4406 85.9275 40.6203C85.8317 40.9075 85.9838 41.2117 86.2711 41.3074C86.3274 41.3243 86.3837 41.3356 86.4457 41.3356H90.2756L89.8307 41.7805C88.2086 43.4026 87.803 45.8808 88.8337 47.931C88.9126 48.0887 89.059 48.1957 89.2336 48.2239C89.2618 48.2295 89.29 48.2295 89.3237 48.2295C89.4702 48.2295 89.6054 48.1732 89.7067 48.0718L94.4266 43.3801C93.8408 48.6012 91.8752 53.5745 88.7267 57.7819C87.9945 57.5904 87.2511 57.4383 86.502 57.3256H86.4794C86.3048 57.3087 86.1471 57.4383 86.1302 57.6129L86.0852 58.0635C86.0683 58.2381 86.1978 58.3958 86.3724 58.4127C86.9188 58.4915 87.4595 58.5985 88.0002 58.7281C87.9551 58.7844 87.91 58.8407 87.865 58.897C87.758 59.0322 87.7749 59.2294 87.91 59.342L88.5071 59.8376C92.6975 54.8587 95.1926 48.6744 95.6375 42.1861L96.2627 41.5609L96.7302 42.0284C96.1557 48.973 93.7733 55.6416 89.8194 61.3753L90.7093 62.0004C91.1373 61.3865 91.5485 60.7557 91.9428 60.108C94.3309 61.2513 96.4599 62.8734 98.1946 64.8729C98.3861 65.0926 98.7184 65.1264 98.9493 64.9405L98.955 64.9349C99.1915 64.7434 99.2197 64.3942 99.0225 64.1632C98.0482 63.0424 96.9555 62.0342 95.7615 61.15H118.06C118.358 61.15 118.606 60.9078 118.606 60.6036C118.606 60.3051 118.364 60.0573 118.06 60.0573H94.1394C93.6043 59.7306 93.058 59.4434 92.4947 59.1674ZM102.988 46.72L97.2258 40.992C98.7015 40.5527 100.295 40.9526 101.388 42.034L101.906 42.5522C102.999 43.6448 103.41 45.2388 102.988 46.72ZM105.229 40.2485H100.718C99.6646 39.7473 98.4818 39.6065 97.3441 39.843C98.1383 38.7278 99.4224 38.0632 100.791 38.0632H101.529C103.067 38.0632 104.486 38.9024 105.229 40.2485ZM97.4906 35.6582L98.0087 35.1401C99.0958 34.0474 100.695 33.6362 102.177 34.0643L98.9493 37.3085C97.9017 37.6971 97.0006 38.4012 96.3754 39.3305C96.1219 37.9956 96.5387 36.6214 97.4906 35.6582ZM94.4886 35.1344L95.0067 35.6526C95.2489 35.9004 95.4629 36.1764 95.6319 36.4806C95.3841 37.055 95.2433 37.669 95.2151 38.2941C94.7251 37.8661 94.1619 37.5338 93.5536 37.3085L90.3263 34.0587C91.8076 33.6306 93.4015 34.0474 94.4886 35.1344ZM90.9796 38.0689H91.7175C93.0861 38.0689 94.3703 38.7278 95.1644 39.843C94.0267 39.6065 92.8383 39.7473 91.7907 40.2485H87.2736C88.0227 38.9024 89.442 38.0632 90.9796 38.0689ZM89.5209 46.72C89.0928 45.2388 89.5096 43.6448 90.5966 42.5578L91.1148 42.0396C91.8977 41.2567 92.9622 40.8174 94.0718 40.823C94.4829 40.823 94.8884 40.8794 95.2771 40.9976L89.5209 46.72Z" fill="#F2F2F2"/>
</g>
<path d="M216 78C216 80.2091 214.209 82 212 82L131 82C128.791 82 127 80.2091 127 78L127 72L216 72L216 78Z" fill="#BCD1F0"/>
<path opacity="0.5" d="M187 79L186.709 78.7136C186.377 78.3862 186.136 78.1441 185.986 77.9872C185.836 77.8303 185.667 77.636 185.479 77.4041C185.297 77.1722 185.172 76.9642 185.103 76.7801C185.034 76.5891 185 76.3947 185 76.1969C185 75.8627 185.103 75.5797 185.31 75.3478C185.523 75.1159 185.786 75 186.099 75C186.462 75 186.762 75.1535 187 75.4604C187.238 75.1535 187.538 75 187.901 75C188.214 75 188.474 75.1159 188.681 75.3478C188.894 75.5797 189 75.8627 189 76.1969C189 76.4629 188.919 76.7391 188.756 77.0256C188.593 77.312 188.415 77.561 188.221 77.7724C188.033 77.9838 187.723 78.3009 187.291 78.7238L187 79Z" fill="white"/>
<path opacity="0.5" d="M198.202 76.2019V75.7981H195.798V76.2019H198.202ZM197.404 77.4038V77H195.798V77.4038H197.404ZM195.798 76.3991V76.8028H198.202V76.3991H195.798ZM198.606 75C198.712 75 198.803 75.0407 198.878 75.1221C198.959 75.1972 199 75.2879 199 75.3944V77.7981C199 77.9045 198.959 77.9984 198.878 78.0798C198.803 78.1612 198.712 78.2019 198.606 78.2019H195.798L195 79V75.3944C195 75.2879 195.038 75.1972 195.113 75.1221C195.194 75.0407 195.288 75 195.394 75H198.606Z" fill="white"/>
<path opacity="0.5" d="M207.333 77.8235C207.514 77.8235 207.667 77.8831 207.792 78.0024C207.917 78.1153 207.979 78.2502 207.979 78.4071C207.979 78.5702 207.913 78.7114 207.781 78.8306C207.656 78.9435 207.507 79 207.333 79C207.16 79 207.007 78.9435 206.875 78.8306C206.75 78.7114 206.688 78.5702 206.688 78.4071C206.688 78.3443 206.691 78.3004 206.698 78.2753L205.125 77.4471C204.993 77.5537 204.84 77.6071 204.667 77.6071C204.486 77.6071 204.33 77.5475 204.198 77.4282C204.066 77.309 204 77.1678 204 77.0047C204 76.8416 204.066 76.7004 204.198 76.5812C204.33 76.462 204.486 76.4024 204.667 76.4024C204.84 76.4024 204.993 76.4557 205.125 76.5624L206.688 75.7435C206.674 75.6808 206.667 75.6337 206.667 75.6024C206.667 75.4392 206.733 75.298 206.865 75.1788C206.997 75.0596 207.153 75 207.333 75C207.514 75 207.67 75.0596 207.802 75.1788C207.934 75.298 208 75.4392 208 75.6024C208 75.7655 207.934 75.9067 207.802 76.0259C207.67 76.1451 207.514 76.2047 207.333 76.2047C207.167 76.2047 207.014 76.1482 206.875 76.0353L205.312 76.8635C205.326 76.9263 205.333 76.9733 205.333 77.0047C205.333 77.0361 205.326 77.0831 205.312 77.1459L206.896 77.9741C207.021 77.8737 207.167 77.8235 207.333 77.8235Z" fill="white"/>
<g filter="url(#filter0_d)">
<rect x="127" y="16" width="89" height="40" fill="url(#paint1_linear)"/>
</g>
<ellipse cx="168.603" cy="51.3268" rx="1.09768" ry="0.99043" fill="white"/>
<ellipse opacity="0.5" cx="165.341" cy="51.3354" rx="0.731788" ry="0.660287" fill="#F2F2F2"/>
<ellipse opacity="0.5" cx="171.866" cy="51.3354" rx="0.731788" ry="0.660287" fill="#F2F2F2"/>
<ellipse opacity="0.5" cx="174.763" cy="51.3354" rx="0.731788" ry="0.660287" fill="#F2F2F2"/>
<ellipse opacity="0.5" cx="177.659" cy="51.3354" rx="0.731788" ry="0.660287" fill="#F2F2F2"/>
<path d="M147.464 38.75C136.14 38.75 129.769 50.25 128 56H215C212.318 46.8 199.841 33 185.508 33C172.827 33 163.193 42.6792 161.915 46.8C159.851 44.2125 155.722 38.75 147.464 38.75Z" fill="url(#paint2_linear)"/>
<circle cx="202" cy="25" r="5" fill="url(#paint3_radial)"/>
<rect x="127" y="56" width="89" height="16" fill="#CFDFF5"/>
<path d="M133 59H204.5C205.328 59 206 59.6716 206 60.5C206 61.3284 205.328 62 204.5 62H133V59Z" fill="url(#paint4_linear)"/>
<path d="M133 63H180C180.552 63 181 63.4477 181 64C181 64.5523 180.552 65 180 65H133V63Z" fill="url(#paint5_linear)"/>
<path opacity="0.5" d="M133 66H204.5C204.776 66 205 66.2239 205 66.5C205 66.7761 204.776 67 204.5 67H133V66Z" fill="url(#paint6_linear)"/>
<path opacity="0.5" d="M133 68H176.5C176.776 68 177 68.2239 177 68.5C177 68.7761 176.776 69 176.5 69H133V68Z" fill="url(#paint7_linear)"/>
<path d="M127 9C127 6.79086 128.791 5 131 5H212C214.209 5 216 6.79086 216 9V16H127V9Z" fill="#BED3F0"/>
<circle opacity="0.2" cx="136.5" cy="10.5" r="3.5" fill="white"/>
<path d="M135.886 10.7632C136.108 10.7105 136.313 10.6842 136.5 10.6842C136.687 10.6842 136.892 10.7105 137.114 10.7632C137.336 10.8158 137.538 10.9035 137.719 11.0263C137.906 11.1491 138 11.2865 138 11.4386V12H135V11.4386C135 11.2865 135.091 11.1491 135.272 11.0263C135.459 10.9035 135.664 10.8158 135.886 10.7632ZM135.974 9.22807C136.12 9.07602 136.295 9 136.5 9C136.705 9 136.88 9.07602 137.026 9.22807C137.173 9.37427 137.246 9.54971 137.246 9.75439C137.246 9.95906 137.173 10.1345 137.026 10.2807C136.88 10.4269 136.705 10.5 136.5 10.5C136.295 10.5 136.12 10.4269 135.974 10.2807C135.827 10.1345 135.754 9.95906 135.754 9.75439C135.754 9.54971 135.827 9.37427 135.974 9.22807Z" fill="white"/>
<path d="M142 8H180.5C181.328 8 182 8.67157 182 9.5C182 10.3284 181.328 11 180.5 11H142V8Z" fill="url(#paint8_linear)"/>
<path d="M142 12H170.5C170.776 12 171 12.2239 171 12.5C171 12.7761 170.776 13 170.5 13H142V12Z" fill="url(#paint9_linear)"/>
<defs>
<filter id="filter0_d" x="117" y="8" width="109" height="60" filterUnits="userSpaceOnUse" color-interpolation-filters="sRGB">
<feFlood flood-opacity="0" result="BackgroundImageFix"/>
<feColorMatrix in="SourceAlpha" type="matrix" values="0 0 0 0 0 0 0 0 0 0 0 0 0 0 0 0 0 0 127 0"/>
<feOffset dy="2"/>
<feGaussianBlur stdDeviation="5"/>
<feColorMatrix type="matrix" values="0 0 0 0 0 0 0 0 0 0 0 0 0 0 0 0 0 0 0.1 0"/>
<feBlend mode="normal" in2="BackgroundImageFix" result="effect1_dropShadow"/>
<feBlend mode="normal" in="SourceGraphic" in2="effect1_dropShadow" result="shape"/>
</filter>
<radialGradient id="paint0_radial" cx="0" cy="0" r="1" gradientUnits="userSpaceOnUse" gradientTransform="translate(187.5 45) rotate(13.4957) scale(192.824 803.435)">
<stop stop-color="white"/>
<stop offset="1" stop-color="#F2F2F2"/>
</radialGradient>
<linearGradient id="paint1_linear" x1="182.583" y1="16" x2="173.222" y2="59.4089" gradientUnits="userSpaceOnUse">
<stop stop-color="#D4E2F5"/>
<stop offset="1" stop-color="#9BBAE6"/>
</linearGradient>
<linearGradient id="paint2_linear" x1="175.671" y1="33" x2="171.777" y2="56.0467" gradientUnits="userSpaceOnUse">
<stop stop-color="#B7CFF1"/>
<stop offset="1" stop-color="#88ADE1"/>
</linearGradient>
<radialGradient id="paint3_radial" cx="0" cy="0" r="1" gradientUnits="userSpaceOnUse" gradientTransform="translate(202 20) rotate(90) scale(10)">
<stop stop-color="#CADDF8"/>
<stop offset="1" stop-color="#9BBAE6"/>
</radialGradient>
<linearGradient id="paint4_linear" x1="206" y1="60.5" x2="133" y2="60.5" gradientUnits="userSpaceOnUse">
<stop stop-color="#CFDFF5" stop-opacity="0.5"/>
<stop offset="1" stop-color="white"/>
</linearGradient>
<linearGradient id="paint5_linear" x1="181" y1="64" x2="133" y2="64" gradientUnits="userSpaceOnUse">
<stop stop-color="#CFDFF5" stop-opacity="0.5"/>
<stop offset="1" stop-color="white"/>
</linearGradient>
<linearGradient id="paint6_linear" x1="205" y1="66.5" x2="133" y2="66.5" gradientUnits="userSpaceOnUse">
<stop stop-color="#CFDFF5" stop-opacity="0.5"/>
<stop offset="1" stop-color="white"/>
</linearGradient>
<linearGradient id="paint7_linear" x1="177" y1="68.5" x2="133" y2="68.5" gradientUnits="userSpaceOnUse">
<stop stop-color="#CFDFF5" stop-opacity="0.5"/>
<stop offset="1" stop-color="white"/>
</linearGradient>
<linearGradient id="paint8_linear" x1="182" y1="9.49999" x2="142" y2="9.49999" gradientUnits="userSpaceOnUse">
<stop stop-color="#A8C4EC"/>
<stop offset="1" stop-color="white"/>
</linearGradient>
<linearGradient id="paint9_linear" x1="171" y1="12.5" x2="142" y2="12.5" gradientUnits="userSpaceOnUse">
<stop stop-color="#A8C4EC"/>
<stop offset="1" stop-color="white"/>
</linearGradient>
</defs>
</svg>
