<svg width="375" height="90" viewBox="0 0 375 90" fill="none" xmlns="http://www.w3.org/2000/svg">
<g clip-path="url(#clip0)">
<rect width="375" height="90" fill="white"/>
<path d="M0 0H375V90H0V0Z" fill="url(#paint0_radial)"/>
<g filter="url(#filter0_d)">
<path d="M97.4859 27.9999C97.4859 16.9542 106.44 7.99994 117.486 7.99994L257.514 7.99997C268.56 7.99997 277.514 16.9543 277.514 28L277.514 82L97.4859 81.9999L97.4859 27.9999Z" fill="white"/>
</g>
<path d="M102.5 34.3408C102.5 31.0271 105.186 28.3408 108.5 28.3408L266.5 28.3408C269.814 28.3408 272.5 31.0271 272.5 34.3408L272.5 82L102.5 82L102.5 34.3408Z" fill="white"/>
<rect x="209.694" y="20.1349" width="40" height="4" rx="2" transform="rotate(-180 209.694 20.1349)" fill="#EAEAEA"/>
<rect x="167.552" y="20.1349" width="4" height="4" rx="2" transform="rotate(-180 167.552 20.1349)" fill="#EAEAEA"/>
<g opacity="0.5">
<path d="M103 34.5C103 31.4624 105.462 29 108.5 29L266.5 29C269.538 29 272 31.4625 272 34.5L272 55L103 55L103 34.5Z" fill="url(#paint1_linear)"/>
<path d="M227.885 44.2308L228.875 45.1611C228.875 45.412 228.672 45.6154 228.421 45.6154H221.454C221.203 45.6154 221 45.412 221 45.1611L221.99 44.2308V41.9375C221.99 41.2163 222.182 40.5889 222.566 40.0553C222.965 39.5216 223.51 39.1755 224.201 39.0168V38.6923C224.201 38.5048 224.27 38.3462 224.408 38.2163C224.546 38.0721 224.723 38 224.937 38C225.152 38 225.329 38.0721 225.467 38.2163C225.605 38.3462 225.674 38.5048 225.674 38.6923V39.0168C226.365 39.1755 226.902 39.5216 227.286 40.0553C227.685 40.5889 227.885 41.2163 227.885 41.9375V44.2308ZM225.628 46.7404C225.429 46.9135 225.198 47 224.937 47C224.677 47 224.446 46.9135 224.247 46.7404C224.047 46.5529 223.947 46.3365 223.947 46.0913H225.928C225.928 46.3365 225.828 46.5529 225.628 46.7404Z" fill="white"/>
<path d="M240.219 42.4165C240.776 42.2847 241.289 42.2187 241.757 42.2187C242.226 42.2187 242.739 42.2847 243.295 42.4165C243.852 42.5483 244.357 42.7681 244.812 43.0757C245.28 43.3833 245.515 43.7275 245.515 44.1084V45.5146H238V44.1084C238 43.7275 238.227 43.3833 238.681 43.0757C239.15 42.7681 239.663 42.5483 240.219 42.4165ZM240.439 38.5713C240.805 38.1904 241.245 38 241.757 38C242.27 38 242.709 38.1904 243.076 38.5713C243.442 38.9375 243.625 39.377 243.625 39.8896C243.625 40.4023 243.442 40.8418 243.076 41.208C242.709 41.5742 242.27 41.7573 241.757 41.7573C241.245 41.7573 240.805 41.5742 240.439 41.208C240.073 40.8418 239.89 40.4023 239.89 39.8896C239.89 39.377 240.073 38.9375 240.439 38.5713Z" fill="white"/>
<path d="M259.887 42.9615L261.787 44.8616C261.974 45.0482 261.974 45.3506 261.787 45.5372C261.601 45.7238 261.298 45.7238 261.112 45.5372L259.211 43.6371V43.2781L259.085 43.1515C258.55 43.6159 257.917 43.8482 257.185 43.8482C256.368 43.8482 255.672 43.5667 255.095 43.0037C254.532 42.4407 254.25 41.751 254.25 40.9346C254.25 40.1183 254.532 39.4286 255.095 38.8656C255.672 38.2885 256.368 38 257.185 38C258.001 38 258.691 38.2885 259.254 38.8656C259.817 39.4286 260.098 40.1183 260.098 40.9346C260.098 41.6666 259.866 42.2999 259.401 42.8348L259.528 42.9615H259.887Z" fill="white"/>
</g>
<path d="M184 29L109 29C105.686 29 103 31.6863 103 35L103 82L184 82L184 29Z" fill="url(#paint2_linear)"/>
<g opacity="0.5">
<path opacity="0.5" d="M111 42.5C111 39.4624 113.462 37 116.5 37C119.538 37 122 39.4624 122 42.5C122 45.5376 119.538 48 116.5 48C113.462 48 111 45.5376 111 42.5Z" fill="white"/>
<path d="M126 40H173.5C174.881 40 176 41.1193 176 42.5C176 43.8807 174.881 45 173.5 45H126V40Z" fill="url(#paint3_linear)"/>
<path d="M118.687 40H114.312C114.125 40 114 40.1429 114 40.3572V44.6429C114 44.8572 114.125 45 114.312 45H118.687C118.875 45 119 44.8572 119 44.6429V40.3572C119 40.1429 118.875 40 118.687 40ZM115.875 41.0714C116.062 41.0714 116.187 41.2143 116.187 41.4286C116.187 41.6429 116.062 41.7857 115.875 41.7857C115.687 41.7857 115.562 41.6429 115.562 41.4286C115.562 41.2143 115.687 41.0714 115.875 41.0714ZM114.625 43.9286L115.25 42.5L116.187 43.2143L117.125 41.7857L118.375 43.9286H114.625Z" fill="white"/>
</g>
<g opacity="0.5">
<path opacity="0.5" d="M111 56.5C111 53.4624 113.462 51 116.5 51C119.538 51 122 53.4624 122 56.5C122 59.5376 119.538 62 116.5 62C113.462 62 111 59.5376 111 56.5Z" fill="#FCFDFE"/>
<path d="M126 54H173.5C174.881 54 176 55.1193 176 56.5C176 57.8807 174.881 59 173.5 59H126V54Z" fill="url(#paint4_linear)"/>
<path d="M118.687 54H114.312C114.125 54 114 54.1429 114 54.3572V58.6429C114 58.8572 114.125 59 114.312 59H118.687C118.875 59 119 58.8572 119 58.6429V54.3572C119 54.1429 118.875 54 118.687 54ZM115.875 55.0714C116.062 55.0714 116.187 55.2143 116.187 55.4286C116.187 55.6429 116.062 55.7857 115.875 55.7857C115.687 55.7857 115.562 55.6429 115.562 55.4286C115.562 55.2143 115.687 55.0714 115.875 55.0714ZM114.625 57.9286L115.25 56.5L116.187 57.2143L117.125 55.7857L118.375 57.9286H114.625Z" fill="white"/>
</g>
<g opacity="0.5">
<path opacity="0.5" d="M111 70.5C111 67.4624 113.462 65 116.5 65C119.538 65 122 67.4624 122 70.5C122 73.5376 119.538 76 116.5 76C113.462 76 111 73.5376 111 70.5Z" fill="#FCFDFE"/>
<path d="M126 68H173.5C174.881 68 176 69.1193 176 70.5C176 71.8807 174.881 73 173.5 73H126V68Z" fill="url(#paint5_linear)"/>
<path d="M118.687 68H114.312C114.125 68 114 68.1429 114 68.3572V72.6429C114 72.8572 114.125 73 114.312 73H118.687C118.875 73 119 72.8572 119 72.6429V68.3572C119 68.1429 118.875 68 118.687 68ZM115.875 69.0714C116.062 69.0714 116.187 69.2143 116.187 69.4286C116.187 69.6429 116.062 69.7857 115.875 69.7857C115.687 69.7857 115.562 69.6429 115.562 69.4286C115.562 69.2143 115.687 69.0714 115.875 69.0714ZM114.625 71.9286L115.25 70.5L116.187 71.2143L117.125 69.7857L118.375 71.9286H114.625Z" fill="white"/>
</g>
<g opacity="0.3">
<path d="M111 84.5001C111 81.4625 113.462 79.0001 116.5 79.0001C119.538 79.0001 122 81.4625 122 84.5001C122 87.5376 119.538 90.0001 116.5 90.0001C113.462 90.0001 111 87.5376 111 84.5001Z" fill="url(#paint6_linear)"/>
<path d="M118.687 82.0001H114.312C114.125 82.0001 114 82.1429 114 82.3572V86.6429C114 86.8572 114.125 87.0001 114.312 87.0001H118.687C118.875 87.0001 119 86.8572 119 86.6429V82.3572C119 82.1429 118.875 82.0001 118.687 82.0001ZM115.875 83.0715C116.062 83.0715 116.187 83.2144 116.187 83.4286C116.187 83.6429 116.062 83.7858 115.875 83.7858C115.687 83.7858 115.562 83.6429 115.562 83.4286C115.562 83.2144 115.687 83.0715 115.875 83.0715ZM114.625 85.9286L115.25 84.5001L116.187 85.2144L117.125 83.7858L118.375 85.9286H114.625Z" fill="url(#paint7_linear)"/>
</g>
</g>
<defs>
<filter id="filter0_d" x="87.4859" y="-4.00006" width="200.028" height="94" filterUnits="userSpaceOnUse" color-interpolation-filters="sRGB">
<feFlood flood-opacity="0" result="BackgroundImageFix"/>
<feColorMatrix in="SourceAlpha" type="matrix" values="0 0 0 0 0 0 0 0 0 0 0 0 0 0 0 0 0 0 127 0"/>
<feOffset dy="-2"/>
<feGaussianBlur stdDeviation="5"/>
<feColorMatrix type="matrix" values="0 0 0 0 0 0 0 0 0 0 0 0 0 0 0 0 0 0 0.1 0"/>
<feBlend mode="normal" in2="BackgroundImageFix" result="effect1_dropShadow"/>
<feBlend mode="normal" in="SourceGraphic" in2="effect1_dropShadow" result="shape"/>
</filter>
<radialGradient id="paint0_radial" cx="0" cy="0" r="1" gradientUnits="userSpaceOnUse" gradientTransform="translate(187.5 45) rotate(13.4957) scale(192.824 803.435)">
<stop stop-color="white"/>
<stop offset="1" stop-color="#F2F2F2"/>
</radialGradient>
<linearGradient id="paint1_linear" x1="206" y1="29" x2="206" y2="82" gradientUnits="userSpaceOnUse">
<stop stop-color="#BDBDBD"/>
<stop offset="1" stop-color="#F9F9F9" stop-opacity="0"/>
</linearGradient>
<linearGradient id="paint2_linear" x1="184" y1="59.9166" x2="122.324" y2="94.4392" gradientUnits="userSpaceOnUse">
<stop stop-color="#B7CFF1"/>
<stop offset="1" stop-color="#88ADE1"/>
</linearGradient>
<linearGradient id="paint3_linear" x1="176" y1="42.5" x2="126" y2="42.5" gradientUnits="userSpaceOnUse">
<stop stop-color="#B2CBF0"/>
<stop offset="1" stop-color="white"/>
</linearGradient>
<linearGradient id="paint4_linear" x1="176" y1="56.5" x2="126" y2="56.5" gradientUnits="userSpaceOnUse">
<stop stop-color="#B2CBF0"/>
<stop offset="1" stop-color="white"/>
</linearGradient>
<linearGradient id="paint5_linear" x1="176" y1="70.5" x2="126" y2="70.5" gradientUnits="userSpaceOnUse">
<stop stop-color="#B2CBF0"/>
<stop offset="1" stop-color="white"/>
</linearGradient>
<linearGradient id="paint6_linear" x1="116.5" y1="79.0001" x2="116.5" y2="85.5999" gradientUnits="userSpaceOnUse">
<stop stop-color="white"/>
<stop offset="1" stop-color="white" stop-opacity="0"/>
</linearGradient>
<linearGradient id="paint7_linear" x1="116.5" y1="82.0001" x2="116.5" y2="85" gradientUnits="userSpaceOnUse">
<stop stop-color="white"/>
<stop offset="1" stop-color="white" stop-opacity="0"/>
</linearGradient>
<clipPath id="clip0">
<rect width="375" height="90" fill="white"/>
</clipPath>
</defs>
</svg>
