<svg width="375" height="90" viewBox="0 0 375 90" fill="none" xmlns="http://www.w3.org/2000/svg">
<g clip-path="url(#clip0)">
<rect width="375" height="90" fill="white"/>
<rect width="375" height="90" fill="url(#paint0_radial)"/>
<g filter="url(#filter0_d)">
<path d="M277.514 61.9999C277.514 73.0456 268.56 82 257.514 82L117.486 81.9999C106.44 81.9999 97.4859 73.0456 97.4859 61.9999L97.4859 8.01717L277.514 8.01719L277.514 61.9999Z" fill="white"/>
<path d="M277.264 61.9999C277.264 72.9076 268.422 81.75 257.514 81.75L117.486 81.7499C106.578 81.7499 97.7359 72.9076 97.7359 61.9999L97.7359 8.26717L277.264 8.26719L277.264 61.9999Z" stroke="url(#paint1_linear)" stroke-width="0.5"/>
</g>
<path d="M272.25 20.4701L102.75 20.4701L102.75 8.26709L272.25 8.26711L272.25 20.4701Z" fill="white" stroke="url(#paint2_linear)" stroke-width="0.5"/>
<path d="M272.25 51.9999C272.25 55.1755 269.676 57.7499 266.5 57.7499L108.5 57.7499C105.324 57.7499 102.75 55.1755 102.75 51.9999L102.75 20.0951L272.25 20.0951L272.25 51.9999Z" fill="#BCD1F0" stroke="#E0E0E0" stroke-width="0.5"/>
<path d="M121.781 28.8451C121.781 27.7405 122.677 26.8451 123.781 26.8451H139.781C140.886 26.8451 141.781 27.7405 141.781 28.8451V44.8451C141.781 45.9497 140.886 46.8451 139.781 46.8451H123.781C122.677 46.8451 121.781 45.9497 121.781 44.8451V28.8451Z" fill="#8BAFE2"/>
<rect x="159.115" y="26.8451" width="20" height="20" rx="2" fill="#8BAFE2"/>
<rect x="196.448" y="26.8451" width="20" height="20" rx="2" fill="#8BAFE2"/>
<rect x="233.781" y="26.8451" width="20" height="20" rx="2" fill="#8BAFE2"/>
<path d="M121.781 52.3451C121.781 51.5167 122.453 50.8451 123.281 50.8451H140.281C141.11 50.8451 141.781 51.5167 141.781 52.3451C141.781 53.1735 141.11 53.8451 140.281 53.8451H123.281C122.453 53.8451 121.781 53.1735 121.781 52.3451Z" fill="#FDFEFF"/>
<path d="M159.115 52.3451C159.115 51.5167 159.787 50.8451 160.615 50.8451H177.615C178.443 50.8451 179.115 51.5167 179.115 52.3451C179.115 53.1735 178.443 53.8451 177.615 53.8451H160.615C159.787 53.8451 159.115 53.1735 159.115 52.3451Z" fill="#FDFEFF"/>
<path d="M196.448 52.3451C196.448 51.5167 197.12 50.8451 197.948 50.8451H214.948C215.776 50.8451 216.448 51.5167 216.448 52.3451C216.448 53.1735 215.776 53.8451 214.948 53.8451H197.948C197.12 53.8451 196.448 53.1735 196.448 52.3451Z" fill="#FDFEFF"/>
<path d="M233.781 52.3451C233.781 51.5167 234.453 50.8451 235.281 50.8451H252.281C253.11 50.8451 253.781 51.5167 253.781 52.3451C253.781 53.1735 253.11 53.8451 252.281 53.8451H235.281C234.453 53.8451 233.781 53.1735 233.781 52.3451Z" fill="#FDFEFF"/>
<path d="M135.032 38.9349V33.0951H129.192V38.9349H135.032ZM135.032 32.2552C135.253 32.2552 135.448 32.3399 135.617 32.5091C135.787 32.6784 135.871 32.8737 135.871 33.0951V38.9349C135.871 39.1563 135.787 39.3516 135.617 39.5209C135.448 39.6771 135.253 39.7552 135.032 39.7552H129.192C128.97 39.7552 128.775 39.6771 128.606 39.5209C128.45 39.3516 128.371 39.1563 128.371 38.9349V33.0951C128.371 32.8737 128.45 32.6784 128.606 32.5091C128.775 32.3399 128.97 32.2552 129.192 32.2552H135.032ZM132.121 38.0951V34.7552H131.282V33.9349H132.942V38.0951H132.121ZM127.532 33.9349V40.5951H134.192V41.4349H127.532C127.31 41.4349 127.115 41.3503 126.946 41.181C126.776 41.0118 126.692 40.8164 126.692 40.5951V33.9349H127.532Z" fill="white"/>
<path d="M171.205 37.2552V38.0951H168.705V36.4349C168.705 36.2006 168.783 36.0052 168.939 35.849C169.108 35.6797 169.304 35.5951 169.525 35.5951H170.365V34.7552H168.705V33.9349H170.365C170.599 33.9349 170.795 34.0131 170.951 34.1693C171.12 34.3256 171.205 34.5209 171.205 34.7552V35.5951C171.205 35.8295 171.12 36.0313 170.951 36.2006C170.782 36.3568 170.586 36.4349 170.365 36.4349H169.525V37.2552H171.205ZM172.865 38.9349V33.0951H167.025V38.9349H172.865ZM172.865 32.2552C173.086 32.2552 173.282 32.3399 173.451 32.5091C173.62 32.6784 173.705 32.8737 173.705 33.0951V38.9349C173.705 39.1563 173.62 39.3516 173.451 39.5209C173.282 39.6771 173.086 39.7552 172.865 39.7552H167.025C166.804 39.7552 166.608 39.6771 166.439 39.5209C166.283 39.3516 166.205 39.1563 166.205 38.9349V33.0951C166.205 32.8737 166.283 32.6784 166.439 32.5091C166.608 32.3399 166.804 32.2552 167.025 32.2552H172.865ZM165.365 33.9349V40.5951H172.025V41.4349H165.365C165.144 41.4349 164.948 41.3503 164.779 41.181C164.61 41.0118 164.525 40.8164 164.525 40.5951V33.9349H165.365Z" fill="white"/>
<path d="M208.538 37.2552C208.538 37.4896 208.453 37.6914 208.284 37.8607C208.115 38.017 207.919 38.0951 207.698 38.0951H206.038V37.2552H207.698V36.4349H206.858V35.5951H207.698V34.7552H206.038V33.9349H207.698C207.932 33.9349 208.128 34.0131 208.284 34.1693C208.453 34.3256 208.538 34.5209 208.538 34.7552V35.3802C208.538 35.5495 208.473 35.6993 208.342 35.8295C208.225 35.9466 208.082 36.0052 207.913 36.0052C208.082 36.0052 208.225 36.0703 208.342 36.2006C208.473 36.3177 208.538 36.461 208.538 36.6302V37.2552ZM202.698 33.9349V40.5951H209.358V41.4349H202.698C202.477 41.4349 202.281 41.3503 202.112 41.181C201.943 41.0118 201.858 40.8164 201.858 40.5951V33.9349H202.698ZM210.198 38.9349V33.0951H204.358V38.9349H210.198ZM210.198 32.2552C210.419 32.2552 210.615 32.3399 210.784 32.5091C210.953 32.6784 211.038 32.8737 211.038 33.0951V38.9349C211.038 39.1563 210.953 39.3516 210.784 39.5209C210.615 39.6771 210.419 39.7552 210.198 39.7552H204.358C204.137 39.7552 203.941 39.6771 203.772 39.5209C203.616 39.3516 203.538 39.1563 203.538 38.9349V33.0951C203.538 32.8737 203.616 32.6784 203.772 32.5091C203.941 32.3399 204.137 32.2552 204.358 32.2552H210.198Z" fill="white"/>
<path d="M247.531 38.9349V33.0951H241.691V38.9349H247.531ZM247.531 32.2552C247.753 32.2552 247.948 32.3399 248.117 32.5091C248.286 32.6784 248.371 32.8737 248.371 33.0951V38.9349C248.371 39.1563 248.286 39.3516 248.117 39.5209C247.948 39.6771 247.753 39.7552 247.531 39.7552H241.691C241.47 39.7552 241.275 39.6771 241.105 39.5209C240.949 39.3516 240.871 39.1563 240.871 38.9349V33.0951C240.871 32.8737 240.949 32.6784 241.105 32.5091C241.275 32.3399 241.47 32.2552 241.691 32.2552H247.531ZM245.031 38.0951V36.4349H243.371V33.9349H244.191V35.5951H245.031V33.9349H245.871V38.0951H245.031ZM240.031 33.9349V40.5951H246.691V41.4349H240.031C239.81 41.4349 239.615 41.3503 239.445 41.181C239.276 41.0118 239.191 40.8164 239.191 40.5951V33.9349H240.031Z" fill="white"/>
<circle cx="253.781" cy="26.8451" r="3.5" fill="white" stroke="#BDBDBD"/>
<rect x="167.75" y="66.2499" width="39.5" height="7.5" rx="3.75" stroke="#E0E0E0" stroke-width="0.5"/>
</g>
<defs>
<filter id="filter0_d" x="87.4859" y="0.0171738" width="200.028" height="93.9828" filterUnits="userSpaceOnUse" color-interpolation-filters="sRGB">
<feFlood flood-opacity="0" result="BackgroundImageFix"/>
<feColorMatrix in="SourceAlpha" type="matrix" values="0 0 0 0 0 0 0 0 0 0 0 0 0 0 0 0 0 0 127 0"/>
<feOffset dy="2"/>
<feGaussianBlur stdDeviation="5"/>
<feColorMatrix type="matrix" values="0 0 0 0 0 0 0 0 0 0 0 0 0 0 0 0 0 0 0.1 0"/>
<feBlend mode="normal" in2="BackgroundImageFix" result="effect1_dropShadow"/>
<feBlend mode="normal" in="SourceGraphic" in2="effect1_dropShadow" result="shape"/>
</filter>
<radialGradient id="paint0_radial" cx="0" cy="0" r="1" gradientUnits="userSpaceOnUse" gradientTransform="translate(187.5 45) rotate(13.4957) scale(192.824 803.435)">
<stop stop-color="white"/>
<stop offset="1" stop-color="#F2F2F2"/>
</radialGradient>
<linearGradient id="paint1_linear" x1="115.074" y1="38.4088" x2="115.074" y2="8.01717" gradientUnits="userSpaceOnUse">
<stop stop-color="#E0E0E0"/>
<stop offset="1" stop-color="#E0E0E0" stop-opacity="0"/>
</linearGradient>
<linearGradient id="paint2_linear" x1="119.109" y1="20.7201" x2="119.109" y2="8.01709" gradientUnits="userSpaceOnUse">
<stop stop-color="#E0E0E0"/>
<stop offset="1" stop-color="#E0E0E0" stop-opacity="0"/>
</linearGradient>
<clipPath id="clip0">
<rect width="375" height="90" fill="white"/>
</clipPath>
</defs>
</svg>
